<?xml version="1.0" standalone="no"?>
<!DOCTYPE svg PUBLIC "-//W3C//DTD SVG 20010904//EN"
 "http://www.w3.org/TR/2001/REC-SVG-20010904/DTD/svg10.dtd">
<svg version="1.0" xmlns="http://www.w3.org/2000/svg"
 width="778.000000pt" height="654.000000pt" viewBox="0 0 778.000000 654.000000"
 preserveAspectRatio="xMidYMid meet">
<metadata>
Created by potrace 1.16, written by Peter Selinger 2001-2019
</metadata>
<g transform="translate(0.000000,654.000000) scale(0.100000,-0.100000)"
fill="#000000" stroke="none">
<path d="M3905 6070 c-261 -3 -398 -9 -415 -16 -32 -15 -89 -80 -106 -121 -9
-21 -14 -74 -14 -152 l0 -119 -47 -10 c-27 -6 -69 -13 -96 -16 -26 -3 -68 -12
-95 -20 -26 -8 -87 -27 -137 -41 -142 -42 -283 -103 -455 -197 -31 -17 -100
-61 -216 -139 -99 -67 -310 -263 -413 -384 -101 -119 -207 -278 -275 -410 -60
-119 -106 -222 -106 -239 0 -7 -7 -27 -15 -42 -8 -16 -15 -39 -15 -51 0 -12
-4 -24 -9 -28 -6 -3 -13 -27 -17 -53 -9 -67 -33 -108 -106 -182 -35 -36 -77
-83 -94 -105 -54 -68 -139 -217 -164 -285 -47 -129 -42 -124 -180 -149 -25 -5
-54 -12 -65 -16 -31 -12 -95 -77 -95 -96 0 -10 -4 -21 -10 -24 -6 -4 -10 -183
-10 -505 0 -322 4 -501 10 -505 6 -3 10 -15 10 -25 0 -24 65 -88 110 -108 19
-9 66 -19 105 -22 l70 -5 11 -45 c5 -25 16 -58 22 -73 7 -16 12 -31 12 -33 0
-12 56 -124 94 -189 42 -73 117 -176 170 -234 36 -39 194 -174 216 -184 8 -4
35 -21 60 -37 124 -81 271 -146 415 -182 134 -33 172 -37 410 -36 317 0 421
19 730 133 82 31 286 97 365 119 99 27 196 36 389 36 234 0 301 -9 494 -66 84
-25 163 -48 177 -51 14 -3 30 -9 35 -13 20 -16 322 -111 385 -121 36 -6 76
-16 89 -22 34 -17 618 -17 652 0 13 6 49 17 79 22 55 11 272 94 300 116 8 6
31 19 50 28 52 26 78 42 97 59 10 9 32 23 48 31 36 19 162 139 231 222 72 86
119 160 174 275 41 86 50 108 50 122 0 8 3 18 8 22 4 4 12 31 17 59 l11 52 59
-3 c105 -5 202 45 240 123 22 48 23 997 0 1051 -28 67 -90 124 -135 124 -10 0
-22 5 -26 11 -4 8 -31 10 -76 7 -58 -5 -70 -3 -75 11 -3 9 -9 25 -14 36 -4 11
-18 49 -30 84 -49 146 -155 315 -271 431 -58 58 -80 97 -97 170 -25 112 -37
148 -72 212 -5 10 -9 25 -9 33 0 8 -13 41 -30 72 -16 31 -30 59 -30 64 0 10
-126 219 -166 275 -127 180 -345 399 -496 501 -18 12 -58 39 -88 60 -53 36
-289 173 -298 173 -2 0 -31 13 -65 29 -34 16 -96 41 -137 56 -41 15 -91 33
-110 40 -92 35 -183 58 -274 68 l-101 12 -5 130 c-6 151 -18 185 -85 240 -29
24 -61 38 -96 45 -28 6 -54 9 -58 8 -3 -2 -181 -5 -396 -8z m283 -1055 c2
-659 1 -711 -15 -722 -12 -10 -74 -13 -223 -13 -195 0 -208 1 -225 20 -15 17
-16 24 -6 43 9 16 11 56 8 128 -6 124 -6 99 0 238 3 73 1 117 -6 124 -14 14
-14 134 -1 142 6 4 10 142 10 381 l0 374 228 -2 227 -3 3 -710z m-818 -210 c0
-476 -1 -505 -18 -514 -11 -6 -250 -11 -593 -14 -484 -3 -583 -7 -629 -20 -30
-8 -82 -23 -115 -33 -33 -9 -67 -23 -76 -31 -20 -17 -48 -18 -31 -1 7 7 12 18
12 25 0 28 166 284 250 384 50 60 226 239 235 239 4 0 43 30 88 68 81 66 158
122 187 135 8 4 29 15 45 25 128 78 341 170 473 203 42 11 91 24 107 28 71 21
65 67 65 -494z m1265 484 c11 -5 47 -15 80 -23 87 -21 254 -85 358 -137 71
-36 233 -134 262 -159 11 -9 27 -19 35 -23 24 -8 232 -187 275 -237 22 -25 45
-49 52 -53 7 -4 34 -36 60 -70 26 -34 52 -66 58 -72 24 -21 116 -172 145 -235
3 -8 15 -29 25 -47 24 -40 17 -48 -26 -29 -65 29 -175 55 -271 66 -54 5 -323
10 -607 10 -280 0 -516 3 -525 6 -14 5 -16 60 -16 516 l0 509 38 -6 c20 -4 46
-11 57 -16z m1035 -1363 c165 -28 300 -76 401 -144 14 -9 46 -30 70 -46 59
-38 110 -88 173 -166 80 -101 151 -225 162 -287 3 -21 10 -43 15 -48 4 -6 11
-35 14 -65 4 -30 11 -64 16 -75 6 -12 8 -198 6 -470 -3 -453 -8 -516 -43 -592
-7 -17 -14 -35 -14 -41 0 -5 -7 -23 -15 -38 -8 -16 -15 -37 -15 -46 0 -9 -5
-20 -11 -23 -5 -4 -14 -17 -20 -28 -42 -99 -190 -256 -321 -343 -126 -84 -229
-131 -330 -150 -46 -9 -91 -20 -101 -25 -30 -16 -266 -22 -332 -10 -33 7 -89
16 -125 22 -80 12 -264 63 -347 95 -34 13 -66 24 -71 24 -5 0 -24 7 -42 16
-18 9 -46 20 -64 25 -17 4 -69 20 -116 35 -78 25 -185 51 -300 73 -128 25
-532 20 -650 -8 -222 -52 -268 -64 -360 -95 -41 -13 -109 -39 -150 -56 -100
-41 -249 -85 -335 -99 -119 -18 -138 -21 -200 -32 -67 -12 -264 -5 -292 10
-10 5 -51 14 -90 20 -40 6 -87 18 -105 26 -18 8 -67 28 -108 46 -91 38 -129
62 -243 156 -138 114 -217 223 -284 393 -31 79 -46 127 -56 180 -13 70 -21
898 -8 914 5 6 12 39 16 74 4 34 11 65 16 68 5 3 9 13 9 23 0 30 61 161 109
236 56 87 85 119 186 204 157 132 281 192 505 243 91 21 368 24 1850 21 1255
-2 1530 -5 1600 -17z"/>
</g>
</svg>
